<svg xmlns="http://www.w3.org/2000/svg" width="256" height="256"><path fill-opacity=".016" d="M0 128.004v128.004l128.25-.254 128.25-.254.254-127.75L257.008 0H0v128.004m.485.496c0 70.4.119 99.053.265 63.672.146-35.38.146-92.98 0-128C.604 29.153.485 58.1.485 128.5" fill="#1976D2" fill-rule="evenodd"/><path fill-opacity=".099" d="M11.791 45.936c-1.489.478-4.084 1.848-5.765 3.045C-.258 53.456 0 50.129 0 126.635c0 68.755.029 69.794 2.096 74.063 2.772 5.727 8.734 9.304 15.492 9.296 5.763-.007 3.232 1.243 35.412-17.496 14.025-8.168 27.3-15.722 29.5-16.789 2.2-1.066 4.787-2.632 5.75-3.479 1.656-1.457 1.751-.821 1.772 11.865.025 15.143 1.25 19.432 6.912 24.196l3.219 2.709h51.777l3.424-3.006c6.975-6.124 6.646-2.189 6.646-79.427 0-75.677.167-73.336-5.627-78.753-4.743-4.435-7.152-4.814-30.6-4.814-21.745 0-22.165.04-26.348 2.491-2.338 1.37-5.303 4.183-6.588 6.25-2.081 3.348-2.375 5.208-2.685 17.003l-.348 13.244-6.652-3.638c-8.505-4.651-40.088-22.924-51.124-29.578-8.851-5.337-14.483-6.683-20.237-4.836m181.533 1.008c-3.081 1.879-7.824 7.369-7.824 9.056 0 .459-.338 1.171-.75 1.583-.412.413-.75 32.184-.75 70.604v69.853l2.407 3.813c1.324 2.097 3.833 5.013 5.577 6.48l3.169 2.667h51.694l3.112-2.619c6.342-5.336 6.041-1.334 6.041-80.328V56.006l-3.675-4.068c-6.212-6.876-6.503-6.938-32.525-6.934-21.281.003-23.575.171-26.476 1.94m20.542 13.742c-11.273.68-10.309-5.249-10.722 65.948-.195 33.784-.063 62.983.294 64.887.849 4.527 2.557 4.959 19.654 4.97 10.059.007 14.023-.348 15.25-1.363 1.513-1.253 1.658-7.084 1.658-66.715 0-61.462-.105-65.399-1.768-66.289-2.207-1.181-15.559-1.969-24.366-1.438m-104.643 2.28c-2.206 1.839-2.269 2.357-2 16.652l.277 14.753 4.237 2.565c25.617 15.504 28.685 17.785 31.69 23.564 1.447 2.781 1.561.828 1.567-26.693.006-29.554-.004-29.701-2.217-31.25-1.77-1.24-5.18-1.55-16.75-1.524-12.774.03-14.802.263-16.804 1.933m-91.666 3.257C16.19 68.173 16 75.696 16 127.788c0 38.995.355 60.007 1.035 61.278.57 1.064 1.88 1.934 2.912 1.934C22.151 191 36 183.219 36 181.981c0-.465 1.012-1.16 2.25-1.543 1.237-.383 13.387-7.262 27-15.286L90 150.563V104.184L68.25 91.545c-11.963-6.951-27.306-15.993-34.096-20.092C27.364 67.354 21.202 64 20.461 64c-.741 0-2.048 1-2.904 2.223M107 127.099v13.099l3.75-2.235c2.063-1.228 6.561-3.788 9.997-5.688 3.435-1.9 6.477-3.828 6.759-4.284.681-1.102-2.27-3.991-4.077-3.991-.786 0-1.429-.36-1.429-.799 0-.726-13.368-9.201-14.513-9.201-.268 0-.487 5.894-.487 13.099m37 6.866c0 3.511-13.449 13.487-30.5 22.623l-6 3.215-.273 16.957c-.239 14.854-.065 17.129 1.403 18.348 1.276 1.061 5.466 1.392 17.602 1.392 14.611 0 16.044-.16 17.348-1.941 1.152-1.575 1.42-7.573 1.42-31.75 0-16.395-.225-29.809-.5-29.809s-.5.434-.5.965" fill="#1976D2" fill-rule="evenodd"/><path fill-opacity=".31" d="M14 45.875c0 .481-1.274 1.13-2.831 1.441-2.55.51-6.509 3.712-9.919 8.02C.277 56.566 0 72.416 0 126.874c0 38.478.338 70.109.75 70.293.413.183 1.575 1.959 2.584 3.946 2.757 5.434 8.433 8.232 15.505 7.644 4.741-.395 7.936-1.738 19.661-8.269 16.091-8.963 33.992-19.335 43.732-25.338 3.702-2.283 7.19-4.15 7.75-4.15.64 0 1.018 4.939 1.018 13.288 0 11.794.253 13.789 2.25 17.742 1.237 2.45 3.779 5.47 5.648 6.712 3.285 2.183 4.176 2.258 26.8 2.258 26.085 0 27.068-.205 32-6.671l2.802-3.672.3-70.079c.203-47.383-.043-71.262-.762-73.735-1.098-3.781-6.995-9.843-9.573-9.843-.806 0-1.465-.45-1.465-1 0-.637-8.215-1-22.645-1H103.71l-4.357 2.75c-6.491 4.098-7.734 7.501-8.127 22.25-.416 15.604-.456 15.739-3.986 13.405-4.434-2.933-36.366-21.419-40.211-23.28-1.941-.939-7.891-4.277-13.223-7.416C28.474 49.569 23.636 47 23.056 47 22.475 47 22 46.55 22 46s-1.8-1-4-1-4 .394-4 .875m181.5.165c-.55.518-2.524 2.162-4.386 3.654-6.32 5.063-6.114 2.406-6.114 78.84 0 49.486.324 70.229 1.122 71.782 1.659 3.229 6.004 7.667 9.078 9.273 2.108 1.101 7.814 1.4 26 1.363 26.195-.054 28.504-.552 32.251-6.952 2.007-3.429 2.054-4.964 2.298-75.348l.248-71.847-2.13-2.991c-1.171-1.646-3.938-4.302-6.148-5.903L243.7 45l-23.6.05c-13.285.028-24.037.461-24.6.99m17.867 14.647c-11.86.658-10.809-5.517-11.223 65.947-.195 33.784-.063 62.983.294 64.887.853 4.548 2.544 4.965 20.154 4.973 10.48.004 14.517-.346 15.75-1.366 1.513-1.253 1.658-7.087 1.658-66.715 0-61.462-.105-65.399-1.768-66.289-2.224-1.19-15.488-1.956-24.865-1.437m-104.143 2.278c-2.21 1.843-2.269 2.342-2 17.078l.276 15.181 13.858 8.388c7.622 4.613 14.175 8.388 14.563 8.388 1.168 0 5.847 5.296 7.51 8.5 1.442 2.778 1.557.805 1.563-26.693.006-29.554-.004-29.701-2.217-31.25-1.77-1.24-5.18-1.55-16.75-1.524-12.772.03-14.802.263-16.803 1.932m-91.667 3.258C16.19 68.173 16 75.696 16 127.788c0 38.995.355 60.007 1.035 61.278.57 1.064 1.892 1.934 2.938 1.934 1.047 0 7.296-3.15 13.888-7s12.47-7 13.062-7c.592 0 1.077-.36 1.077-.799 0-.44 1.575-1.369 3.5-2.065s3.5-1.638 3.5-2.092c0-.455 1.125-1.11 2.5-1.455s2.5-1.026 2.5-1.513c0-.774 13.717-9.233 16.559-10.211.583-.201 4.07-2.146 7.75-4.323L91 150.584v-46.312L73.25 93.767C45.786 77.512 41.434 75 40.727 75c-.361 0-4.738-2.475-9.727-5.5S21.296 64 20.522 64c-.775 0-2.109 1-2.965 2.223M107 127.595v13.595l4.75-2.79a798.571 798.571 0 0 1 10.25-5.887c7.886-4.443 7.473-5.747-4-12.656-5.225-3.147-9.838-5.752-10.25-5.789-.412-.037-.75 6.05-.75 13.527m36.529 6.313c-1.083 3.414-8.758 9.486-22.779 18.021l-13.75 8.37v16.728c0 14.33.237 16.925 1.651 18.101 1.197.994 5.859 1.465 16.912 1.71 21.343.473 19.437 3.841 19.437-34.338 0-16.775-.195-30.5-.433-30.5s-.705.858-1.038 1.908" fill="#1976D2" fill-rule="evenodd"/><path fill-opacity=".237" d="M103 45.773c0 .425-1.586 1.626-3.524 2.67-1.938 1.043-4.525 3.508-5.75 5.477L91.5 57.5l-.273 70-.272 70 2.272 4.492c1.25 2.47 3.802 5.508 5.671 6.75 3.285 2.183 4.176 2.258 26.8 2.258 26.085 0 27.068-.205 32-6.671l2.802-3.672.3-70.079c.203-47.383-.043-71.262-.762-73.735-1.098-3.781-6.995-9.843-9.573-9.843-.806 0-1.465-.45-1.465-1 0-.638-8.333-1-23-1-12.65 0-23 .348-23 .773m92.5.267c-.55.518-2.524 2.162-4.386 3.654-6.32 5.063-6.114 2.406-6.114 78.84 0 49.486.324 70.229 1.122 71.782 1.659 3.229 6.004 7.667 9.078 9.273 2.101 1.097 7.902 1.411 26.102 1.411 22.624 0 23.515-.075 26.8-2.258 1.869-1.242 4.41-4.262 5.648-6.712l2.25-4.454v-68.82c0-55.539-.261-69.444-1.351-72.054-1.147-2.745-3.807-5.502-10.357-10.737-1.572-1.256-47.451-1.186-48.792.075m23.888 14.14c-.278.451-3.335.82-6.792.82-10.933 0-10.039-5.615-10.452 65.634-.195 33.784-.063 62.983.294 64.887.853 4.548 2.544 4.965 20.154 4.973 10.48.004 14.517-.346 15.75-1.366 1.513-1.253 1.658-7.085 1.658-66.691 0-51.175-.271-65.487-1.25-66.094-1.938-1.202-18.792-3.085-19.362-2.163M109.25 62.944 107 64.821v64.467c0 58.71.147 64.59 1.651 65.84 1.197.994 5.859 1.465 16.912 1.71 14.382.319 15.381.218 17.349-1.75 2.074-2.074 2.088-2.515 2.088-66.531V64.113l-2.223-1.556c-1.77-1.24-5.18-1.55-16.75-1.524-12.714.029-14.808.268-16.777 1.911" fill="#1976D2" fill-rule="evenodd"/></svg>